<?xml version="1.0" encoding="utf-8"?>
<!-- Generator: Adobe Illustrator 23.0.0, SVG Export Plug-In . SVG Version: 6.00 Build 0)  -->
<svg version="1.1" id="Layer_1" xmlns="http://www.w3.org/2000/svg" xmlns:xlink="http://www.w3.org/1999/xlink" x="0px" y="0px"
	 viewBox="0 0 24 24" style="enable-background:new 0 0 24 24;" xml:space="preserve">
<style type="text/css">
	.st0{fill:#FF6363;}
</style>
<g transform="translate(-7.75 -7.75)">
	<path class="st0" d="M16.1,28.5c-1.7,0-3.1-1.4-3.1-3.1V14.2c0-0.4,0.3-0.8,0.8-0.8h12c0.4,0,0.8,0.3,0.8,0.8v11.2
		c0,1.7-1.4,3.1-3.2,3.1H16.1C16.1,28.5,16.1,28.5,16.1,28.5z M14.5,14.9v10.5c0,0.9,0.7,1.6,1.7,1.6h7.2c0.9,0,1.7-0.7,1.7-1.6
		V14.9H14.5z"/>
	<path class="st0" d="M27.8,14.9h-16c-0.4,0-0.8-0.3-0.8-0.8s0.3-0.8,0.8-0.8h16c0.4,0,0.8,0.3,0.8,0.8S28.2,14.9,27.8,14.9z"/>
	<path class="st0" d="M24,14.9h-8.5c-0.3,0-0.5-0.1-0.6-0.3c-0.1-0.2-0.2-0.5-0.1-0.7l1-2.4c0.1-0.3,0.4-0.5,0.7-0.5H23
		c0.3,0,0.6,0.2,0.7,0.5l1,2.4c0.1,0.2,0.1,0.5-0.1,0.7C24.5,14.8,24.3,14.9,24,14.9z M16.6,13.4h6.3l-0.4-0.9H17L16.6,13.4z"/>
	<path class="st0" d="M16.8,24.6c-0.4,0-0.8-0.3-0.8-0.8v-5.8c0-0.4,0.3-0.8,0.8-0.8s0.8,0.3,0.8,0.8v5.8
		C17.5,24.3,17.2,24.6,16.8,24.6z"/>
	<path class="st0" d="M19.8,24.6c-0.4,0-0.8-0.3-0.8-0.8v-5.8c0-0.4,0.3-0.8,0.8-0.8s0.8,0.3,0.8,0.8v5.8
		C20.5,24.3,20.2,24.6,19.8,24.6z"/>
	<path class="st0" d="M22.8,24.6c-0.4,0-0.8-0.3-0.8-0.8v-5.8c0-0.4,0.3-0.8,0.8-0.8s0.8,0.3,0.8,0.8v5.8
		C23.5,24.3,23.2,24.6,22.8,24.6z"/>
</g>
</svg>
